<svg xmlns="http://www.w3.org/2000/svg" viewBox="0 0 2400 2400"><defs><style>.cls-1{fill:#c1272d;}.cls-2{fill:#fcee21;opacity:0.91;}.cls-3{fill:#8cc63f;}.cls-4{fill:#4747fc;}.cls-5{fill:#fff;}</style></defs><title>BAV</title><g id="Layer_2" data-name="Layer 2"><path class="cls-1" d="M1212,1172.57l-2.76,10h12.2v-42.94h-2.61A259,259,0,0,1,1212,1172.57Z"/><path class="cls-1" d="M1181.14,1139.63h-2.61v42.94h12.2l-2.76-10A259,259,0,0,1,1181.14,1139.63Z"/><rect class="cls-1" x="1125.59" y="1139.63" width="42.94" height="42.94"/><rect class="cls-1" x="1072.65" y="1139.63" width="42.94" height="42.94"/><rect class="cls-1" x="1284.41" y="1139.63" width="42.94" height="42.94"/><rect class="cls-1" x="1231.47" y="1139.63" width="42.94" height="42.94"/><path class="cls-1" d="M1204.82,1198.67a5,5,0,0,1-9.64,0l-1.69-6.1h-15v42.94h42.94v-42.94h-15Z"/><rect class="cls-1" x="1125.59" y="1192.57" width="42.94" height="42.94"/><rect class="cls-1" x="1072.65" y="1192.57" width="42.94" height="42.94"/><rect class="cls-1" x="1284.41" y="1192.57" width="42.94" height="42.94"/><rect class="cls-1" x="1231.47" y="1192.57" width="42.94" height="42.94"/><rect class="cls-1" x="1178.53" y="1245.51" width="42.94" height="42.94"/><rect class="cls-1" x="1125.59" y="1245.51" width="42.94" height="42.94"/><rect class="cls-1" x="1072.65" y="1245.51" width="42.94" height="42.94"/><rect class="cls-1" x="1284.41" y="1245.51" width="42.94" height="42.94"/><rect class="cls-1" x="1231.47" y="1245.51" width="42.94" height="42.94"/><rect class="cls-2" x="1178.53" y="1298.45" width="42.94" height="42.94"/><rect class="cls-2" x="1125.59" y="1298.45" width="42.94" height="42.94"/><rect class="cls-2" x="1072.65" y="1298.45" width="42.94" height="42.94"/><rect class="cls-2" x="1284.41" y="1298.45" width="42.94" height="42.94"/><rect class="cls-2" x="1231.47" y="1298.45" width="42.94" height="42.94"/><rect class="cls-2" x="1178.53" y="1351.39" width="42.94" height="42.94"/><rect class="cls-2" x="1125.59" y="1351.39" width="42.94" height="42.94"/><rect class="cls-2" x="1072.65" y="1351.39" width="42.94" height="42.94"/><rect class="cls-2" x="1284.41" y="1351.39" width="42.94" height="42.94"/><rect class="cls-2" x="1231.47" y="1351.39" width="42.94" height="42.94"/><rect class="cls-2" x="1178.53" y="1404.33" width="42.94" height="42.94"/><rect class="cls-2" x="1125.59" y="1404.33" width="42.94" height="42.94"/><rect class="cls-2" x="1072.65" y="1404.33" width="42.94" height="42.94"/><rect class="cls-2" x="1284.41" y="1404.33" width="42.94" height="42.94"/><rect class="cls-2" x="1231.47" y="1404.33" width="42.94" height="42.94"/><rect class="cls-2" x="1178.53" y="1457.27" width="42.94" height="42.94"/><rect class="cls-2" x="1125.59" y="1457.27" width="42.94" height="42.94"/><rect class="cls-2" x="1072.65" y="1457.27" width="42.94" height="42.94"/><rect class="cls-2" x="1019.71" y="1457.27" width="42.94" height="42.94"/><rect class="cls-2" x="1337.35" y="1457.27" width="42.94" height="42.94"/><rect class="cls-2" x="1284.41" y="1457.27" width="42.94" height="42.94"/><rect class="cls-2" x="1231.47" y="1457.27" width="42.94" height="42.94"/><rect class="cls-2" x="1178.53" y="1510.21" width="42.94" height="42.94"/><rect class="cls-2" x="1125.59" y="1510.21" width="42.94" height="42.94"/><rect class="cls-2" x="1072.65" y="1510.21" width="42.94" height="42.94"/><rect class="cls-2" x="1019.71" y="1510.21" width="42.94" height="42.94"/><rect class="cls-2" x="966.77" y="1510.21" width="42.94" height="42.94"/><rect class="cls-2" x="1337.35" y="1510.21" width="42.94" height="42.94"/><rect class="cls-2" x="1390.29" y="1510.21" width="42.94" height="42.94"/><rect class="cls-2" x="1284.41" y="1510.21" width="42.94" height="42.94"/><rect class="cls-2" x="1231.47" y="1510.21" width="42.94" height="42.94"/><rect class="cls-2" x="1178.53" y="1563.16" width="42.94" height="42.94"/><rect class="cls-2" x="1125.59" y="1563.16" width="42.94" height="42.94"/><rect class="cls-2" x="1072.65" y="1563.16" width="42.94" height="42.94"/><rect class="cls-2" x="1019.71" y="1563.16" width="42.94" height="42.94"/><rect class="cls-2" x="966.77" y="1563.16" width="42.94" height="42.94"/><rect class="cls-2" x="913.83" y="1563.16" width="42.94" height="42.94"/><rect class="cls-2" x="1337.35" y="1563.16" width="42.94" height="42.94"/><rect class="cls-2" x="1390.29" y="1563.16" width="42.94" height="42.94"/><rect class="cls-2" x="1443.23" y="1563.16" width="42.94" height="42.94"/><rect class="cls-2" x="1284.41" y="1563.16" width="42.94" height="42.94"/><rect class="cls-2" x="1231.47" y="1563.16" width="42.94" height="42.94"/><rect class="cls-3" x="1178.53" y="1616.1" width="42.94" height="42.94"/><rect class="cls-3" x="1125.59" y="1616.1" width="42.94" height="42.94"/><rect class="cls-3" x="1072.65" y="1616.1" width="42.94" height="42.94"/><rect class="cls-3" x="1019.71" y="1616.1" width="42.94" height="42.94"/><rect class="cls-3" x="966.77" y="1616.1" width="42.94" height="42.94"/><rect class="cls-3" x="913.83" y="1616.1" width="42.94" height="42.94"/><rect class="cls-3" x="860.89" y="1616.1" width="42.94" height="42.94"/><rect class="cls-3" x="1337.35" y="1616.1" width="42.94" height="42.94"/><rect class="cls-3" x="1390.29" y="1616.1" width="42.94" height="42.94"/><rect class="cls-3" x="1443.23" y="1616.1" width="42.94" height="42.94"/><rect class="cls-3" x="1496.17" y="1616.1" width="42.94" height="42.94"/><rect class="cls-3" x="1284.41" y="1616.1" width="42.94" height="42.94"/><rect class="cls-3" x="1231.47" y="1616.1" width="42.94" height="42.94"/><rect class="cls-3" x="1178.53" y="1669.04" width="42.94" height="42.94"/><rect class="cls-3" x="1125.59" y="1669.04" width="42.94" height="42.94"/><rect class="cls-3" x="1072.65" y="1669.04" width="42.94" height="42.94"/><rect class="cls-3" x="1019.71" y="1669.04" width="42.94" height="42.94"/><rect class="cls-3" x="966.77" y="1669.04" width="42.94" height="42.94"/><rect class="cls-3" x="913.83" y="1669.04" width="42.94" height="42.94"/><rect class="cls-3" x="860.89" y="1669.04" width="42.94" height="42.94"/><rect class="cls-3" x="807.95" y="1669.04" width="42.94" height="42.94"/><rect class="cls-3" x="1337.35" y="1669.04" width="42.94" height="42.94"/><rect class="cls-3" x="1390.29" y="1669.04" width="42.94" height="42.94"/><rect class="cls-3" x="1443.23" y="1669.04" width="42.94" height="42.94"/><rect class="cls-3" x="1496.17" y="1669.04" width="42.94" height="42.94"/><rect class="cls-3" x="1549.11" y="1669.04" width="42.94" height="42.94"/><rect class="cls-3" x="1284.41" y="1669.04" width="42.94" height="42.94"/><rect class="cls-3" x="1231.47" y="1669.04" width="42.94" height="42.94"/><rect class="cls-3" x="1178.53" y="1721.98" width="42.94" height="42.94"/><rect class="cls-3" x="1125.59" y="1721.98" width="42.94" height="42.94"/><rect class="cls-3" x="1072.65" y="1721.98" width="42.94" height="42.94"/><rect class="cls-3" x="1019.71" y="1721.98" width="42.94" height="42.94"/><rect class="cls-3" x="966.77" y="1721.98" width="42.94" height="42.94"/><rect class="cls-3" x="913.83" y="1721.98" width="42.94" height="42.94"/><rect class="cls-3" x="860.89" y="1721.98" width="42.94" height="42.94"/><rect class="cls-3" x="807.95" y="1721.98" width="42.94" height="42.94"/><rect class="cls-3" x="755.01" y="1721.98" width="42.94" height="42.94"/><rect class="cls-3" x="1337.35" y="1721.98" width="42.94" height="42.94"/><rect class="cls-3" x="1390.29" y="1721.98" width="42.94" height="42.94"/><rect class="cls-3" x="1443.23" y="1721.98" width="42.94" height="42.94"/><rect class="cls-3" x="1496.17" y="1721.98" width="42.94" height="42.94"/><rect class="cls-3" x="1549.11" y="1721.98" width="42.94" height="42.94"/><rect class="cls-3" x="1602.05" y="1721.98" width="42.94" height="42.94"/><rect class="cls-3" x="1284.41" y="1721.98" width="42.94" height="42.94"/><rect class="cls-3" x="1231.47" y="1721.98" width="42.94" height="42.94"/><rect class="cls-3" x="1178.53" y="1774.92" width="42.94" height="42.94"/><rect class="cls-3" x="1125.59" y="1774.92" width="42.94" height="42.94"/><rect class="cls-3" x="1072.65" y="1774.92" width="42.94" height="42.94"/><rect class="cls-3" x="1019.71" y="1774.92" width="42.94" height="42.94"/><rect class="cls-3" x="966.77" y="1774.92" width="42.94" height="42.94"/><rect class="cls-3" x="913.83" y="1774.92" width="42.94" height="42.94"/><rect class="cls-3" x="860.89" y="1774.92" width="42.94" height="42.94"/><rect class="cls-3" x="807.95" y="1774.92" width="42.94" height="42.94"/><rect class="cls-3" x="755.01" y="1774.92" width="42.94" height="42.94"/><rect class="cls-3" x="702.07" y="1774.92" width="42.94" height="42.94"/><rect class="cls-3" x="1337.35" y="1774.92" width="42.94" height="42.94"/><rect class="cls-3" x="1390.29" y="1774.92" width="42.94" height="42.94"/><rect class="cls-3" x="1443.23" y="1774.92" width="42.94" height="42.94"/><rect class="cls-3" x="1496.17" y="1774.92" width="42.94" height="42.94"/><rect class="cls-3" x="1549.11" y="1774.92" width="42.94" height="42.94"/><rect class="cls-3" x="1602.05" y="1774.92" width="42.94" height="42.94"/><rect class="cls-3" x="1654.99" y="1774.92" width="42.94" height="42.94"/><rect class="cls-3" x="1284.41" y="1774.92" width="42.94" height="42.94"/><rect class="cls-3" x="1231.47" y="1774.92" width="42.94" height="42.94"/><rect class="cls-3" x="1178.53" y="1827.86" width="42.94" height="42.94"/><rect class="cls-3" x="1125.59" y="1827.86" width="42.94" height="42.94"/><rect class="cls-3" x="1072.65" y="1827.86" width="42.94" height="42.94"/><rect class="cls-3" x="1019.71" y="1827.86" width="42.94" height="42.94"/><rect class="cls-3" x="966.77" y="1827.86" width="42.94" height="42.94"/><rect class="cls-3" x="913.83" y="1827.86" width="42.94" height="42.94"/><rect class="cls-3" x="860.89" y="1827.86" width="42.94" height="42.94"/><rect class="cls-3" x="807.95" y="1827.86" width="42.94" height="42.94"/><rect class="cls-3" x="755.01" y="1827.86" width="42.94" height="42.94"/><rect class="cls-3" x="702.07" y="1827.86" width="42.94" height="42.94"/><rect class="cls-3" x="1337.35" y="1827.86" width="42.94" height="42.94"/><rect class="cls-3" x="1390.29" y="1827.86" width="42.94" height="42.94"/><rect class="cls-3" x="1443.23" y="1827.86" width="42.94" height="42.94"/><rect class="cls-3" x="1496.17" y="1827.86" width="42.94" height="42.94"/><rect class="cls-3" x="1549.11" y="1827.86" width="42.94" height="42.94"/><rect class="cls-3" x="1602.05" y="1827.86" width="42.94" height="42.94"/><rect class="cls-3" x="1707.93" y="1827.86" width="42.94" height="42.94"/><rect class="cls-3" x="1813.82" y="1827.86" width="42.94" height="42.94"/><rect class="cls-3" x="649.13" y="1827.86" width="42.94" height="42.94"/><rect class="cls-3" x="1654.99" y="1827.86" width="42.94" height="42.94"/><rect class="cls-3" x="1284.41" y="1827.86" width="42.94" height="42.94"/><rect class="cls-3" x="1231.47" y="1827.86" width="42.94" height="42.94"/><rect class="cls-3" x="1178.53" y="1880.8" width="42.94" height="42.94"/><rect class="cls-3" x="1125.59" y="1880.8" width="42.94" height="42.94"/><rect class="cls-3" x="1072.65" y="1880.8" width="42.94" height="42.94"/><rect class="cls-3" x="1019.71" y="1880.8" width="42.94" height="42.94"/><rect class="cls-3" x="966.77" y="1880.8" width="42.94" height="42.94"/><rect class="cls-3" x="913.83" y="1880.8" width="42.94" height="42.94"/><rect class="cls-3" x="860.89" y="1880.8" width="42.94" height="42.94"/><rect class="cls-3" x="807.95" y="1880.8" width="42.94" height="42.94"/><rect class="cls-3" x="755.01" y="1880.8" width="42.94" height="42.94"/><rect class="cls-3" x="702.07" y="1880.8" width="42.94" height="42.94"/><rect class="cls-3" x="1337.35" y="1880.8" width="42.94" height="42.94"/><rect class="cls-3" x="1390.29" y="1880.8" width="42.94" height="42.94"/><rect class="cls-3" x="1443.23" y="1880.8" width="42.94" height="42.94"/><rect class="cls-3" x="1496.17" y="1880.8" width="42.94" height="42.94"/><rect class="cls-3" x="1549.11" y="1880.8" width="42.94" height="42.94"/><rect class="cls-3" x="1602.05" y="1880.8" width="42.94" height="42.94"/><rect class="cls-3" x="1707.93" y="1880.8" width="42.94" height="42.94"/><rect class="cls-3" x="649.13" y="1880.8" width="42.94" height="42.94"/><rect class="cls-3" x="1654.99" y="1880.8" width="42.94" height="42.94"/><rect class="cls-3" x="1760.87" y="1880.8" width="42.94" height="42.94"/><rect class="cls-3" x="1866.76" y="1880.8" width="42.94" height="42.94"/><rect class="cls-3" x="1866.76" y="1827.86" width="42.94" height="42.94"/><rect class="cls-3" x="1866.76" y="1774.92" width="42.94" height="42.94"/><rect class="cls-3" x="1919.7" y="1880.8" width="42.94" height="42.94"/><rect class="cls-3" x="1919.7" y="1827.86" width="42.94" height="42.94"/><rect class="cls-3" x="1919.7" y="1774.92" width="42.94" height="42.94"/><rect class="cls-3" x="1919.7" y="1721.98" width="42.94" height="42.94"/><rect class="cls-3" x="1972.64" y="1880.8" width="42.94" height="42.94"/><rect class="cls-3" x="1972.64" y="1827.86" width="42.94" height="42.94"/><rect class="cls-3" x="1972.64" y="1774.92" width="42.94" height="42.94"/><rect class="cls-3" x="1972.64" y="1721.98" width="42.94" height="42.94"/><rect class="cls-3" x="1972.64" y="1669.04" width="42.94" height="42.94"/><rect class="cls-3" x="1813.82" y="1880.8" width="42.94" height="42.94"/><rect class="cls-3" x="543.24" y="1827.86" width="42.94" height="42.94"/><rect class="cls-3" x="596.18" y="1880.8" width="42.94" height="42.94"/><rect class="cls-3" x="490.3" y="1880.8" width="42.94" height="42.94"/><rect class="cls-3" x="490.3" y="1827.86" width="42.94" height="42.94"/><rect class="cls-3" x="490.3" y="1774.92" width="42.94" height="42.94"/><rect class="cls-3" x="437.36" y="1880.8" width="42.94" height="42.94"/><rect class="cls-3" x="437.36" y="1827.86" width="42.94" height="42.94"/><rect class="cls-3" x="437.36" y="1774.92" width="42.94" height="42.94"/><rect class="cls-3" x="437.36" y="1721.98" width="42.94" height="42.94"/><rect class="cls-3" x="384.42" y="1880.8" width="42.94" height="42.94"/><rect class="cls-3" x="384.42" y="1827.86" width="42.94" height="42.94"/><rect class="cls-3" x="384.42" y="1774.92" width="42.94" height="42.94"/><rect class="cls-3" x="384.42" y="1721.98" width="42.94" height="42.94"/><rect class="cls-3" x="384.42" y="1669.04" width="42.94" height="42.94"/><rect class="cls-3" x="543.24" y="1880.8" width="42.94" height="42.94"/><rect class="cls-3" x="1284.41" y="1880.8" width="42.94" height="42.94"/><rect class="cls-3" x="1231.47" y="1880.8" width="42.94" height="42.94"/><path class="cls-4" d="M1200,249.47c-8.66,18.7-28.68,63.17-50.22,119.39h100.44C1228.68,312.63,1208.66,268.17,1200,249.47Z"/><path class="cls-5" d="M1254,378.86H1146q-3.74,9.92-7.49,20.23c-30,82.63-65.84,200.43-65.84,292.4V836.24h254.7V691.49c0-50.78-11.43-142.74-65.87-292.5Q1257.74,388.73,1254,378.86Z"/><path class="cls-5" d="M1072.65,1015.75v113.88h107.29A253.72,253.72,0,0,1,1195.32,1014a5,5,0,0,1,9.36,0,253.91,253.91,0,0,1,15.38,115.66h107.29V846.24h-254.7Z"/><polygon class="cls-4" points="1062.65 1131.23 1062.65 1029.09 926.64 1185.11 1062.65 1131.23"/><polygon class="cls-4" points="1337.35 1029.09 1337.35 1131.23 1473.36 1185.11 1337.35 1029.09"/><path class="cls-4" d="M1191.23,1139.63a250.15,250.15,0,0,0,6.38,30.28l2.39,8.66,2.39-8.66a250.15,250.15,0,0,0,6.38-30.28c.24-1.66.46-3.33.67-5s.4-3.33.57-5a243.16,243.16,0,0,0-10-98.63,243.33,243.33,0,0,0-10,98.63c.17,1.67.36,3.34.57,5S1191,1138,1191.23,1139.63Z"/><path class="cls-5" d="M384.42,2070.12v-80.41H522.27v23h23v45.95h-23v23h23v45.95h-23v23H384.42Zm114.87-34.46v-23H430.37v45.95h68.92Zm0,68.92v-23H430.37v45.95h68.92Z"/><path class="cls-5" d="M591.19,2070.12v-80.41h45.95v137.85H729v23H591.19Z"/><path class="cls-5" d="M810.92,2001.2v-11.49h68.92v23h23v23h23v114.87H879.84v-46H810.92v46H765V2035.66h23v-23h23Zm45.94,23v-11.48h-23v23h-23v46h68.92v-46h-23Z"/><path class="cls-5" d="M990.45,2001.2v-11.49h91.9v23h23v23h-45.94v-23h-46v45.95h91.89v23h23v45.95h-23v23H990.45v-23h-23v-23h45.95v23h68.92v-45.95h-91.9v-23h-23v-45.95h23Z"/><path class="cls-5" d="M1142.57,2001.2v-11.49h137.84v23h-46v137.84h-46V2012.69h-45.94Z"/><path class="cls-5" d="M1533.12,2001.2v-11.49H1602v23h23v23h23v114.87h-46v-46h-68.92v46h-45.95V2035.66h23v-23h23Zm46,23v-11.48h-23v23h-23v46H1602v-46h-23Z"/><path class="cls-5" d="M1808.81,2001.2v-11.49h23v23h-23v23h-23v23h-23v23h-23v23h-23v23h-23v23h-23v-23h23v-23h23v-23h23v-23h23v-23h23v-23h23Z"/><path class="cls-5" d="M1854.76,2035.66v-46h46v68.93h23v23h23v-23h23v-68.93h45.95v91.9h-23v23h-23v23h-23v23h-23v-23h-23v-23h-23v-23h-23Z"/></g></svg>